<svg width="32" height="25" viewBox="0 0 32 25" fill="none" xmlns="http://www.w3.org/2000/svg">
<path fill-rule="evenodd" clip-rule="evenodd" d="M4.77488 14.5434C1.60263 11.3372 1.60263 6.13898 4.77488 2.93281L7.12466 0.55792C7.79756 -0.122171 8.88855 -0.122171 9.56146 0.55792C10.2344 1.23802 10.2344 2.34068 9.56146 3.02077L7.21169 5.39566C5.38522 7.24166 5.38522 10.2345 7.21169 12.0805C9.03813 13.9265 11.9994 13.9265 13.8259 12.0805L16.1321 9.74966C19.3044 6.54346 24.4476 6.54346 27.6198 9.74966C30.7921 12.9558 30.7921 18.154 27.6198 21.3602L25.2266 23.779C24.5537 24.4592 23.4627 24.4592 22.7898 23.779C22.1169 23.099 22.1169 21.9964 22.7898 21.3162L25.183 18.8974C27.0095 17.0514 27.0095 14.0585 25.183 12.2125C23.3566 10.3665 20.3953 10.3665 18.5689 12.2125L16.2627 14.5434C13.0903 17.7496 7.94714 17.7496 4.77488 14.5434ZM31.5803 6.26763C30.9596 6.9967 29.8717 7.07917 29.1504 6.45183C26.0512 3.75657 17.6845 1.86082 11.4944 10.0178C10.9152 10.781 9.83354 10.9251 9.07844 10.3399C8.32334 9.75448 8.18071 8.66132 8.75987 7.89804C16.3202 -2.06441 27.0128 -0.00200724 31.398 3.81168C32.1194 4.43901 32.201 5.53858 31.5803 6.26763ZM2.93974 17.7091C2.2184 17.0818 1.13046 17.1642 0.509771 17.8933C-0.110923 18.6224 -0.029328 19.7219 0.692011 20.3493C5.07727 24.1629 15.7698 26.2254 23.3302 16.2629C23.9094 15.4996 23.7668 14.4065 23.0117 13.8212C22.2565 13.2358 21.1749 13.38 20.5958 14.1431C14.4055 22.3002 6.03895 20.4044 2.93974 17.7091Z" fill="url(#paint0_linear_30563_1528)"/>
<defs>
<linearGradient id="paint0_linear_30563_1528" x1="32.5" y1="-0.500001" x2="0.999997" y2="23" gradientUnits="userSpaceOnUse">
<stop stop-color="#3E82E7"/>
<stop offset="1" stop-color="#42B4EB"/>
</linearGradient>
</defs>
</svg>
